<svg width="38" height="38" viewBox="0 0 38 38" fill="none" xmlns="http://www.w3.org/2000/svg">
<g clip-path="url(#clip0_5_777)">
<path d="M25.4014 22.1676H12.5986C10.5178 22.1701 8.52291 22.9978 7.05156 24.4692C5.58021 25.9405 4.7525 27.9354 4.74999 30.0162V38.0009H33.25V30.0162C33.2475 27.9354 32.4198 25.9405 30.9484 24.4692C29.4771 22.9978 27.4822 22.1701 25.4014 22.1676V22.1676Z" fill="#374957"/>
<path d="M19 19C24.2467 19 28.5 14.7467 28.5 9.5C28.5 4.25329 24.2467 0 19 0C13.7533 0 9.5 4.25329 9.5 9.5C9.5 14.7467 13.7533 19 19 19Z" fill="#374957"/>
</g>
<defs>
<clipPath id="clip0_5_777">
<rect width="38" height="38" fill="white"/>
</clipPath>
</defs>
</svg>
