<svg width="22" height="22" viewBox="0 0 22 22" fill="none" xmlns="http://www.w3.org/2000/svg">
<g clip-path="url(#clip0_1_2756)">
<path d="M5.06104 18.2413H9.93954L13.1653 21.4634C13.3386 21.6377 13.5448 21.776 13.7718 21.8704C13.9988 21.9648 14.2422 22.0134 14.488 22.0134C14.6498 22.0131 14.8109 21.9925 14.9675 21.952C15.2839 21.8721 15.5737 21.7102 15.8077 21.4827C16.0417 21.2551 16.2116 20.9699 16.3003 20.6558L21.99 1.30591L5.06104 18.2413Z" fill="white"/>
<path d="M3.74637 16.9586L20.691 0.0112305L1.35478 5.71381C1.03994 5.80335 0.75398 5.97365 0.52527 6.20781C0.29656 6.44198 0.13305 6.73188 0.0509613 7.04874C-0.0311273 7.36561 -0.0289412 7.69843 0.0573026 8.01419C0.143546 8.32995 0.31085 8.61767 0.542617 8.84881L3.74637 12.0498V16.9586Z" fill="white"/>
</g>
<defs>
<clipPath id="clip0_1_2756">
<rect width="22" height="22" fill="white"/>
</clipPath>
</defs>
</svg>
