<svg width="28" height="28" viewBox="0 0 28 28" fill="none" xmlns="http://www.w3.org/2000/svg">
<g clip-path="url(#clip0_1_2701)">
<path d="M27.9998 13.1938V28H14.0208C11.2896 27.9987 8.61849 27.1986 6.33636 25.6981C4.05424 24.1977 2.26081 22.0626 1.177 19.5556C0.0931844 17.0487 -0.233691 14.2795 0.236636 11.5891C0.706962 8.89873 1.95395 6.40467 3.824 4.41413C5.69406 2.42359 8.1055 1.02351 10.7613 0.386328C13.4171 -0.250851 16.2013 -0.0972949 18.771 0.828083C21.3406 1.75346 23.5835 3.41024 25.2233 5.59436C26.8631 7.77848 27.8282 10.3945 27.9998 13.1203V13.1938ZM15.1665 8.16667H8.16649V10.5H15.1665V8.16667ZM19.8332 12.8333H8.16649V15.1667H19.8332V12.8333ZM19.8332 17.5H8.16649V19.8333H19.8332V17.5Z" fill="#374957"/>
</g>
<defs>
<clipPath id="clip0_1_2701">
<rect width="28" height="28" fill="white"/>
</clipPath>
</defs>
</svg>
