<svg width="30" height="30" viewBox="0 0 30 30" fill="none" xmlns="http://www.w3.org/2000/svg">
<g clip-path="url(#clip0_1_2601)">
<path d="M2.5 26.25V3.75C2.5 3.41848 2.6317 3.10054 2.86612 2.86612C3.10054 2.6317 3.41848 2.5 3.75 2.5H10V0H3.75C2.75544 0 1.80161 0.395088 1.09835 1.09835C0.395088 1.80161 0 2.75544 0 3.75L0 26.25C0 27.2446 0.395088 28.1984 1.09835 28.9017C1.80161 29.6049 2.75544 30 3.75 30H10V27.5H3.75C3.41848 27.5 3.10054 27.3683 2.86612 27.1339C2.6317 26.8995 2.5 26.5815 2.5 26.25Z" fill="white"/>
<path d="M28.9039 12.348L23.1714 6.61548L21.4039 8.38298L26.7339 13.713L6.25019 13.7492V16.2492L26.8039 16.213L21.4014 21.6155L23.1689 23.383L28.9014 17.6505C29.6048 16.9476 30.0002 15.9941 30.0006 14.9997C30.0011 14.0054 29.6066 13.0515 28.9039 12.348Z" fill="white"/>
</g>
<defs>
<clipPath id="clip0_1_2601">
<rect width="30" height="30" fill="white"/>
</clipPath>
</defs>
</svg>
