<svg width="30" height="30" viewBox="0 0 30 30" fill="none" xmlns="http://www.w3.org/2000/svg">
<g clip-path="url(#clip0_1_2690)">
<path d="M26.2499 15C26.2496 14.3103 26.1868 13.6221 26.0624 12.9437L29.8662 10.75L26.1162 4.25L22.3112 6.44875C21.2606 5.54991 20.0534 4.85242 18.7499 4.39125V0H11.2499V4.39125C9.9465 4.85242 8.73925 5.54991 7.68868 6.44875L3.88368 4.25L0.133682 10.75L3.93743 12.9437C3.68757 14.3032 3.68757 15.6968 3.93743 17.0563L0.133682 19.25L3.88368 25.75L7.68868 23.5525C8.73935 24.4509 9.9466 25.148 11.2499 25.6087V30H18.7499V25.6087C20.0534 25.1476 21.2606 24.4501 22.3112 23.5513L26.1162 25.75L29.8662 19.25L26.0624 17.0563C26.1868 16.3779 26.2496 15.6897 26.2499 15ZM18.7499 15C18.7499 15.7417 18.53 16.4667 18.1179 17.0834C17.7059 17.7001 17.1202 18.1807 16.435 18.4645C15.7498 18.7484 14.9958 18.8226 14.2683 18.6779C13.5409 18.5333 12.8727 18.1761 12.3483 17.6517C11.8238 17.1272 11.4667 16.459 11.322 15.7316C11.1773 15.0042 11.2516 14.2502 11.5354 13.5649C11.8192 12.8797 12.2999 12.294 12.9165 11.882C13.5332 11.4699 14.2583 11.25 14.9999 11.25C15.9945 11.25 16.9483 11.6451 17.6516 12.3483C18.3548 13.0516 18.7499 14.0054 18.7499 15Z" fill="white"/>
</g>
<defs>
<clipPath id="clip0_1_2690">
<rect width="30" height="30" fill="white"/>
</clipPath>
</defs>
</svg>
